<?xml version="1.0" encoding="UTF-8"?>
<svg version="1.1" xmlns="http://www.w3.org/2000/svg" width="500" height="500">
<path d="M0 0 C11.3749785 7.39975908 18.41042185 17.16584868 21.33203125 30.4921875 C22.74023968 46.46612702 20.33257566 58.68406565 10.33203125 71.4921875 C9.33037453 72.82427668 8.33012943 74.15742992 7.33203125 75.4921875 C7.74042236 76.00604004 8.14881348 76.51989258 8.56958008 77.04931641 C10.43345601 79.40092815 12.2890295 81.7589636 14.14453125 84.1171875 C14.78712891 84.92542969 15.42972656 85.73367187 16.09179688 86.56640625 C16.71376953 87.35917969 17.33574219 88.15195312 17.9765625 88.96875 C18.54737549 89.69143066 19.11818848 90.41411133 19.70629883 91.15869141 C21.55727598 93.81549267 22.94474294 96.57061345 24.33203125 99.4921875 C19.63705569 99.8156753 14.94864185 100.0502509 10.24511719 100.20629883 C8.64956717 100.27135414 7.05478311 100.35985066 5.46191406 100.47290039 C0.16571016 100.83912726 -4.52398967 100.93214634 -9.66796875 99.4921875 C-12.59557967 96.21878065 -14.10171582 93.36859303 -16.01953125 89.42895508 C-17.36112943 86.4545752 -17.36112943 86.4545752 -19.56640625 85.39331055 C-21.84378922 85.03861954 -21.84378922 85.03861954 -25.41796875 85.4296875 C-26.82136941 85.46401246 -28.22512185 85.48604588 -29.62890625 85.49609375 C-30.65516113 85.51760498 -30.65516113 85.51760498 -31.70214844 85.53955078 C-42.80687425 85.27200026 -52.62123414 77.931556 -59.98046875 70.2421875 C-70.16982581 58.21709607 -70.75558079 44.53205423 -69.66796875 29.4921875 C-68.87637018 25.42563254 -67.66106449 22.11204673 -65.66796875 18.4921875 C-65.24386719 17.70972656 -64.81976563 16.92726562 -64.3828125 16.12109375 C-58.08190233 5.71318364 -48.80168951 -0.71461214 -37.4375 -4.6171875 C-24.87373495 -7.58562111 -11.25457226 -6.36056353 0 0 Z M-35.66796875 24.4921875 C-41.18386266 31.42241318 -41.38910903 37.8994456 -40.66796875 46.4921875 C-39.40643874 51.09136546 -37.47262555 53.77896897 -33.91796875 56.9296875 C-28.70456219 59.43613296 -24.66891085 59.83133023 -18.98046875 58.8671875 C-14.20333669 56.88422702 -11.84424926 54.11464338 -8.85546875 49.9921875 C-6.57860366 43.28142724 -6.35194702 35.48853513 -9.29296875 28.9296875 C-11.97689224 24.40235748 -15.73469767 22.13661119 -20.66796875 20.4921875 C-26.6008765 19.91052988 -30.86116165 21.07517462 -35.66796875 24.4921875 Z " fill="#000000" transform="translate(312.66796875,168.5078125)"/>
<path d="M0 0 C1.18068701 3.54206102 1.1474585 6.51455948 1.25 10.25 C1.95113002 24.27100324 6.53593364 37.01278245 16.94140625 46.83203125 C37.44511555 63.19357705 65.9926901 62.95104012 90.80224609 60.23242188 C95.55896788 59.61647984 100.27878217 58.84350497 105 58 C105.93279785 57.83854492 106.8655957 57.67708984 107.82666016 57.51074219 C126.68264912 54.11608881 144.86742807 48.24230161 163.10107422 42.46972656 C195.44923891 32.27142487 229.58789299 22.66353961 262 38 C269.27320078 41.9821597 275.92602471 46.34979043 282 52 C278.15200952 53.28266349 277.2358224 52.43440509 273.625 50.75 C235.32275424 34.31518656 196.07743725 52.25965502 159.703125 65.57128906 C141.69937654 72.15588871 123.89435546 78.4146791 105 82 C104.26217285 82.14115234 103.5243457 82.28230469 102.76416016 82.42773438 C77.9508426 86.88034963 46.12460768 87.28177278 24.5625 72.5 C23.03203381 71.34599897 21.50988214 70.18080526 20 69 C18.989375 68.278125 17.97875 67.55625 16.9375 66.8125 C4.55186382 56.00576928 -2.04900442 39.82861572 -3.75 23.8125 C-4.27775935 15.86833291 -4.02097194 7.07487467 0 0 Z " fill="#B52025" transform="translate(41,239)"/>
<path d="M0 0 C19.8 0 39.6 0 60 0 C60 7.59 60 15.18 60 23 C49.77 23 39.54 23 29 23 C29 26.3 29 29.6 29 33 C37.91 33 46.82 33 56 33 C56 40.26 56 47.52 56 55 C47.09 55 38.18 55 29 55 C29 58.63 29 62.26 29 66 C39.23 66 49.46 66 60 66 C60 73.59 60 81.18 60 89 C40.2 89 20.4 89 0 89 C0 59.63 0 30.26 0 0 Z " fill="#B52025" transform="translate(179,164)"/>
<path d="M0 0 C1.76923828 0.01353516 1.76923828 0.01353516 3.57421875 0.02734375 C4.47785156 0.03894531 5.38148437 0.05054688 6.3125 0.0625 C3.41139293 1.99657138 2.33969348 2.33123382 -0.9375 2.8125 C-6.07030945 3.88253194 -9.26261223 6.13504717 -12.6875 10.0625 C-16.8264659 16.96077651 -17.66098244 23.72484626 -16.2265625 31.58984375 C-14.07978794 39.78547133 -10.31337893 45.63211975 -3.1875 50.3125 C14.24629916 59.81949003 34.08566316 58.99942387 53.0625 55.75 C53.85323914 55.62188934 54.64397827 55.49377869 55.4586792 55.36178589 C70.54694778 52.91054667 85.29439618 49.29232822 100.02246094 45.22729492 C100.81782257 45.01042023 101.6131842 44.79354553 102.43264771 44.57009888 C103.91882435 44.16278283 105.40266132 43.74679073 106.8835144 43.32052612 C110.33007379 42.37376866 112.918198 41.68902964 116.3125 43.0625 C31.72448724 76.25875072 31.72448724 76.25875072 -2.43359375 63.54296875 C-12.51075281 58.95804284 -20.78819667 52.12454345 -24.96484375 41.6015625 C-27.81661413 31.58182872 -27.39073443 20.98593828 -22.4296875 11.7109375 C-16.91474297 3.66454302 -9.65003234 -0.09554487 0 0 Z " fill="#414141" transform="translate(83.6875,223.9375)"/>
<path d="M0 0 C0.33 0.66 0.66 1.32 1 2 C-0.15113281 1.71125 -1.30226563 1.4225 -2.48828125 1.125 C-36.77792583 -7.05531636 -65.77753769 4.48265946 -97.50219727 16.62963867 C-126.46927912 27.68594231 -152.00112651 32.65046598 -183 32 C-183 31.34 -183 30.68 -183 30 C-181.93265625 29.91363281 -180.8653125 29.82726562 -179.765625 29.73828125 C-151.6620794 27.20113342 -126.09844939 16.85367358 -100.36956787 5.8677063 C-90.92288864 1.83865159 -81.50908879 -2.1484847 -71.75 -5.375 C-70.97897949 -5.63031494 -70.20795898 -5.88562988 -69.41357422 -6.14868164 C-47.52980073 -13.05018538 -19.46424975 -13.70721813 0 0 Z " fill="#414141" transform="translate(323,301)"/>
<path d="M0 0 C8.98445596 -1.40932642 8.98445596 -1.40932642 14 0 C18.57054589 4.36427422 21.27914583 10.38275269 24 16 C26.17061242 13.45209229 27.94312208 11.11515448 29.4296875 8.10546875 C31.02681464 4.88099854 32.40565193 2.51233041 35 0 C40.00188128 -0.99708915 43.84496592 -0.54005119 49 0 C49 8.58 49 17.16 49 26 C45.37 26 41.74 26 38 26 C37.505 20.06 37.505 20.06 37 14 C36.61070312 14.86625 36.22140625 15.7325 35.8203125 16.625 C31.43452171 25.35615955 31.43452171 25.35615955 27.51953125 27.11328125 C24.55377577 27.34210656 22.74413263 27.16636939 20 26 C17.3568951 23.29719458 15.71121604 20.34727731 14 17 C13.34 16.01 12.68 15.02 12 14 C11.67 17.96 11.34 21.92 11 26 C7.37 26 3.74 26 0 26 C0 17.42 0 8.84 0 0 Z " fill="#B52025" transform="translate(209,337)"/>
<path d="M0 0 C12.8192069 -1.52889624 12.8192069 -1.52889624 16.77392578 1.24365234 C20.85845395 5.1892261 24.45897944 9.91795888 27 15 C27.33 10.05 27.66 5.1 28 0 C31.96 0 35.92 0 40 0 C40 8.58 40 17.16 40 26 C27.26803519 27.65043988 27.26803519 27.65043988 23.11181641 24.62597656 C19.22274568 20.81692786 16.06903237 16.48067296 13 12 C12.67 16.62 12.34 21.24 12 26 C8.04 26 4.08 26 0 26 C0 17.42 0 8.84 0 0 Z " fill="#B52025" transform="translate(439,337)"/>
<path d="M0 0 C3.10400022 2.59722467 4.70389316 4.37405617 5.4375 8.40234375 C5.6412945 12.63744825 5.20659069 15.526563 3.5 19.4375 C-1.52257521 24.58563959 -6.65308297 25.18439539 -13.5625 25.375 C-18.85576737 25.23409126 -22.48611137 24.78516532 -27 22 C-30.12748139 18.62561218 -31.89527794 16.36138682 -32.25 11.75 C-31.97307391 7.59610869 -31.30173912 5.45260869 -29 2 C-20.68421857 -4.68878071 -9.40978335 -4.78679501 0 0 Z M-18.375 6.625 C-20.31351084 8.95095516 -20.31351084 8.95095516 -19.875 12.125 C-19.21691176 15.09681373 -19.21691176 15.09681373 -17 17 C-12.33771115 17.4640446 -12.33771115 17.4640446 -8.0625 15.875 C-6.47774599 13.07837528 -6.54052577 11.1506804 -7 8 C-9.08359207 5.6848977 -10.44435228 5.09723835 -13.5 4.5625 C-16.12333573 4.84381635 -16.12333573 4.84381635 -18.375 6.625 Z " fill="#B52025" transform="translate(422,339)"/>
<path d="M0 0 C3.08262136 2.54316262 4.84145014 4.38591042 5.23828125 8.42578125 C5.4371486 16.16067468 5.4371486 16.16067468 3.4375 20 C-3.73194775 25.88262379 -10.98599789 25.77414371 -20 25 C-23.94160343 24.14399521 -26.42321187 22.54643086 -29.375 19.75 C-31.94469418 15.40128677 -32.36114645 11.80573227 -31.375 6.875 C-29.12399359 2.16835023 -26.60214212 -0.35298107 -21.75 -2.3125 C-13.97985256 -3.73702703 -7.2318551 -3.43476885 0 0 Z M-17.8125 7.1875 C-20.27499423 9.75972265 -20.27499423 9.75972265 -20 12.6875 C-19.1108717 15.31863969 -19.1108717 15.31863969 -16 17 C-11.92509248 17.33957563 -10.46998729 17.31332486 -7 15 C-5.82221688 12.69628579 -5.82221688 12.69628579 -6 10 C-8.08333333 7.08333333 -8.08333333 7.08333333 -11 5 C-15.06760656 4.59070626 -15.06760656 4.59070626 -17.8125 7.1875 Z " fill="#000000" transform="translate(191,339)"/>
<path d="M0 0 C3.63 0 7.26 0 11 0 C11.04898438 0.96421875 11.09796875 1.9284375 11.1484375 2.921875 C11.22320312 4.18515625 11.29796875 5.4484375 11.375 6.75 C11.44460937 8.00296875 11.51421875 9.2559375 11.5859375 10.546875 C11.95323304 13.60998121 12.39711286 15.41974266 14 18 C16.41619823 18.25030977 16.41619823 18.25030977 19 18 C21.40119059 14.39821412 21.43771322 11.49133631 21.625 7.3125 C21.66367188 6.61060547 21.70234375 5.90871094 21.7421875 5.18554688 C21.8362334 3.45745345 21.9191968 1.72876325 22 0 C25.96 0 29.92 0 34 0 C34.05454409 2.35448675 34.0939279 4.70767875 34.125 7.0625 C34.14820313 8.37347656 34.17140625 9.68445313 34.1953125 11.03515625 C33.93425591 16.33460503 33.45328808 20.54671192 29.625 24.375 C23.7006273 28.04246881 16.76519977 27.58862882 10 27 C6.22531392 25.88776426 3.00386247 24.66713279 0.91918945 21.20507812 C-0.09926356 18.76187292 -0.23092228 17.08824888 -0.1953125 14.453125 C-0.18886719 13.60878906 -0.18242188 12.76445312 -0.17578125 11.89453125 C-0.15902344 11.02183594 -0.14226562 10.14914062 -0.125 9.25 C-0.11597656 8.36183594 -0.10695313 7.47367187 -0.09765625 6.55859375 C-0.0741475 4.37227989 -0.03827811 2.18610516 0 0 Z " fill="#000000" transform="translate(73,337)"/>
<path d="M0 0 C3.472741 0.049227 5.21117465 0.10138436 7.84375 2.42578125 C9.69876822 5.09893251 11.28067238 7.85079346 12.875 10.6875 C13.67387 11.93078115 14.48301296 13.16750438 15.30078125 14.3984375 C21.875 24.31194196 21.875 24.31194196 21.875 26.6875 C19.91733719 26.76832094 17.95873272 26.82660778 16 26.875 C14.36417969 26.92720703 14.36417969 26.92720703 12.6953125 26.98046875 C11.76460938 26.88378906 10.83390625 26.78710938 9.875 26.6875 C9.215 25.6975 8.555 24.7075 7.875 23.6875 C5.27652495 23.38354994 2.96860893 23.2688692 0.375 23.3125 C-0.31464844 23.30089844 -1.00429688 23.28929687 -1.71484375 23.27734375 C-3.95859087 23.25360192 -3.95859087 23.25360192 -7.125 23.6875 C-7.785 24.6775 -8.445 25.6675 -9.125 26.6875 C-11.9453125 26.98046875 -11.9453125 26.98046875 -15.25 26.875 C-16.34570312 26.84792969 -17.44140625 26.82085937 -18.5703125 26.79296875 C-19.83488281 26.74076172 -19.83488281 26.74076172 -21.125 26.6875 C-19.80192885 23.1068169 -18.2118323 20.04957841 -16.12109375 16.859375 C-15.54552734 15.97765625 -14.96996094 15.0959375 -14.37695312 14.1875 C-13.77818359 13.28 -13.17941406 12.3725 -12.5625 11.4375 C-11.95986328 10.51453125 -11.35722656 9.5915625 -10.73632812 8.640625 C-5.36770243 0.44608971 -5.36770243 0.44608971 0 0 Z M-0.125 9.6875 C-1.115 11.6675 -2.105 13.6475 -3.125 15.6875 C-0.815 15.6875 1.495 15.6875 3.875 15.6875 C2.39 12.7175 2.39 12.7175 0.875 9.6875 C0.545 9.6875 0.215 9.6875 -0.125 9.6875 Z " fill="#B52025" transform="translate(291.125,336.3125)"/>
<path d="M0 0 C3.90353043 0.35038745 5.54269126 0.90592913 8.38574219 3.63647461 C10.58446755 6.74423841 12.42063513 9.90104331 14.22265625 13.25390625 C14.87556641 14.38183594 15.52847656 15.50976562 16.20117188 16.671875 C18.23056733 20.19850395 20.21529749 23.73918874 22.03515625 27.37890625 C17.74515625 27.37890625 13.45515625 27.37890625 9.03515625 27.37890625 C8.70515625 26.05890625 8.37515625 24.73890625 8.03515625 23.37890625 C5.40850722 23.46566345 2.78537543 23.57248606 0.16015625 23.69140625 C-0.58621094 23.71396484 -1.33257812 23.73652344 -2.1015625 23.75976562 C-4.06444775 23.8570257 -6.01812697 24.10932919 -7.96484375 24.37890625 C-8.62484375 25.36890625 -9.28484375 26.35890625 -9.96484375 27.37890625 C-12.78515625 27.671875 -12.78515625 27.671875 -16.08984375 27.56640625 C-17.18554688 27.53933594 -18.28125 27.51226562 -19.41015625 27.484375 C-20.67472656 27.43216797 -20.67472656 27.43216797 -21.96484375 27.37890625 C-19.81884034 21.68658445 -16.79372407 16.71821812 -13.58984375 11.56640625 C-13.03167969 10.58736328 -12.47351562 9.60832031 -11.8984375 8.59960938 C-8.64311934 3.4435591 -6.26423819 0.66121144 0 0 Z M-0.96484375 10.37890625 C-1.62484375 12.35890625 -2.28484375 14.33890625 -2.96484375 16.37890625 C-0.98484375 16.37890625 0.99515625 16.37890625 3.03515625 16.37890625 C1.55015625 13.40890625 1.55015625 13.40890625 0.03515625 10.37890625 C-0.29484375 10.37890625 -0.62484375 10.37890625 -0.96484375 10.37890625 Z " fill="#000000" transform="translate(40.96484375,335.62109375)"/>
<path d="M0 0 C10.56 0 21.12 0 32 0 C32 2.31 32 4.62 32 7 C28.7 7 25.4 7 22 7 C22 13.27 22 19.54 22 26 C18.04 26 14.08 26 10 26 C10 19.73 10 13.46 10 7 C6.7 7 3.4 7 0 7 C0 4.69 0 2.38 0 0 Z " fill="#000000" transform="translate(117,337)"/>
<path d="M0 0 C10.23 0 20.46 0 31 0 C31 2.31 31 4.62 31 7 C27.7 7 24.4 7 21 7 C21 13.27 21 19.54 21 26 C17.37 26 13.74 26 10 26 C10 19.73 10 13.46 10 7 C6.7 7 3.4 7 0 7 C0 4.69 0 2.38 0 0 Z " fill="#B52025" transform="translate(323,337)"/>
<path d="M0 0 C-0.61488281 0.36351562 -1.22976562 0.72703125 -1.86328125 1.1015625 C-8.20480762 5.04605258 -10.90129787 7.91910637 -12.875 15.25 C-13.07366454 21.20993608 -12.14189773 26.48338582 -8.19140625 31.125 C-2.10233209 36.65005784 3.00817238 38.44687436 11.1953125 38.3359375 C15.46069101 37.82504258 18.34358437 36.20764717 22 34 C20.17130143 38.15375819 17.93940988 39.71514227 14 42 C7.23872028 44.12698591 0.14290682 43.91030444 -6.3125 41 C-12.26297295 37.66054539 -15.52359702 33.15413364 -18.375 27.0625 C-19.90798437 19.55087656 -19.34430632 14.05682561 -15.6328125 7.23828125 C-12.17974691 2.50477268 -5.87150742 -1.95716914 0 0 Z " fill="#B52025" transform="translate(97,232)"/>
<path d="M0 0 C3.96 0 7.92 0 12 0 C12 8.58 12 17.16 12 26 C8.04 26 4.08 26 0 26 C0 17.42 0 8.84 0 0 Z " fill="#B52025" transform="translate(366,337)"/>
<path d="" fill="#414141" transform="translate(0,0)"/>
</svg>
